Coordinates
version=1
nRows=44
nColumns=19
inDegrees=yes

Units are S.I. units (second, meters, Newtons, ...)
Angles are in degrees.

endheader
time	1_Force_X	1_Force_Y	1_Force_Z	1_Moment_X	1_Moment_Y	1_Moment_Z	1_COP_X	1_COP_Y	1_COP_Z	2_Force_X	2_Force_Y	2_Force_Z	2_Moment_X	2_Moment_Y	2_Moment_Z	2_COP_X	2_COP_Y	2_COP_Z
0.5450	-1.252	-1.561	1.107	-0.234	0.000	0.386	-11.547	6.414	-0.485	-0.208	0.000	0.232	0.00000	-0.69065	0.00000	0.00000	17.83068	0.00000
0.5475	-1.117	-2.083	1.373	-0.231	0.000	0.399	-11.590	6.243	-0.529	-0.208	0.000	0.233	0.00000	-0.39234	0.00000	0.00000	18.23740	0.00000
0.5500	-1.340	-2.606	0.888	-0.236	0.000	0.399	-11.591	5.728	-0.486	-0.206	0.000	0.234	0.00000	-0.67682	0.00000	0.00000	19.52162	0.00000
0.5525	-1.163	-1.913	1.106	-0.231	0.000	0.387	-11.416	6.417	-0.441	-0.207	0.000	0.231	0.00000	-0.61848	0.00000	0.00000	17.63147	0.00000
0.5550	-1.382	-1.037	0.975	-0.241	0.000	0.396	-11.676	6.926	-0.921	-0.207	0.000	0.233	0.00000	-1.04664	0.00000	0.00000	16.58373	0.00000
0.5575	-1.693	-0.345	0.797	-0.229	0.000	0.375	-11.589	6.755	-0.879	-0.207	0.000	0.231	0.00000	-3.83991	0.00000	0.00000	16.62533	0.00000
0.5600	-1.426	-1.556	1.110	-0.241	0.000	0.402	-11.587	7.098	-1.097	-0.208	0.000	0.230	0.00000	-0.72812	0.00000	0.00000	15.76241	0.00000
0.5625	-1.208	-2.083	0.931	-0.240	0.000	0.389	-11.417	6.245	-0.398	-0.207	0.000	0.232	0.00000	-0.66963	0.00000	0.00000	18.03688	0.00000
0.5650	-1.297	-2.259	0.799	-0.238	0.000	0.391	-11.418	5.555	-0.401	-0.205	0.000	0.231	0.00000	-0.75799	0.00000	0.00000	19.43738	0.00000
0.5675	-1.298	-1.740	0.886	-0.226	0.000	0.377	-11.636	6.415	-0.312	-0.207	0.000	0.231	0.00000	-0.84625	0.00000	0.00000	17.89980	0.00000
0.5700	-1.167	-1.390	1.018	-0.220	0.000	0.382	-11.504	6.586	-0.441	-0.208	0.000	0.232	0.00000	-0.64184	0.00000	0.00000	17.42530	0.00000
0.5725	-1.074	-2.084	1.063	-0.241	0.000	0.392	-11.422	5.728	0.080	-0.206	0.000	0.231	0.00000	-0.55370	0.00000	0.00000	19.59868	0.00000
0.5750	-1.257	-1.045	0.841	-0.213	0.000	0.372	-11.639	6.071	0.038	-0.208	0.000	0.233	0.00000	-1.02367	0.00000	0.00000	19.25215	0.00000
0.5775	-1.383	-1.211	0.887	-0.239	0.000	0.398	-11.812	6.756	-0.400	-0.207	0.000	0.230	0.00000	-0.96318	0.00000	0.00000	17.27704	0.00000
0.5800	-1.691	-0.512	1.064	-0.241	0.000	0.380	-12.031	6.583	-0.357	-0.208	0.000	0.232	0.00000	-2.38518	0.00000	0.00000	18.04362	0.00000
0.5825	-1.516	-1.035	1.066	-0.228	0.000	0.402	-11.596	6.067	-0.314	-0.205	0.000	0.232	0.00000	-0.90532	0.00000	0.00000	18.49099	0.00000
0.5850	-1.383	-0.864	1.196	-0.227	0.000	0.394	-11.813	6.412	-0.313	-0.205	0.000	0.232	0.00000	-0.85943	0.00000	0.00000	18.14291	0.00000
0.5875	-1.603	-1.037	0.887	-0.245	0.000	0.387	-11.946	6.756	-0.094	-0.207	0.000	0.231	0.00000	-1.44460	0.00000	0.00000	17.77728	0.00000
0.5900	-1.340	-1.390	0.974	-0.228	0.000	0.390	-11.512	5.556	0.299	-0.205	0.000	0.233	0.00000	-0.85689	0.00000	0.00000	20.65227	0.00000
0.5925	-1.207	-2.082	1.152	-0.235	0.000	0.395	-11.906	6.417	0.516	-0.207	0.000	0.230	0.00000	-0.54318	0.00000	0.00000	18.94496	0.00000
0.5950	-1.384	-1.044	1.017	-0.230	0.000	0.367	-11.775	5.730	0.515	-0.207	0.000	0.230	0.00000	-1.24328	0.00000	0.00000	20.46731	0.00000
0.5975	-1.429	-0.864	0.843	-0.232	0.000	0.392	-11.817	7.271	0.170	-0.207	0.000	0.230	0.00000	-1.25978	0.00000	0.00000	16.93966	0.00000
0.6000	-1.428	0.352	1.105	-0.223	0.000	0.367	-11.949	7.443	0.255	-0.208	0.000	0.228	0.00000	1.47806	0.00000	0.00000	16.62521	0.00000
0.6025	-1.474	-1.212	0.667	-0.235	0.000	0.394	-11.946	6.753	-0.137	-0.207	0.000	0.232	0.00000	-1.17022	0.00000	0.00000	17.81837	0.00000
0.6050	-1.646	-1.380	1.066	-0.245	0.000	0.405	-11.903	6.926	-0.094	-0.207	0.000	0.231	0.00000	-0.96073	0.00000	0.00000	17.39927	0.00000
0.6075	-1.778	-0.858	1.066	-0.244	0.000	0.390	-11.773	7.099	0.082	-0.207	0.000	0.230	0.00000	-1.60535	0.00000	0.00000	17.06434	0.00000
0.6100	-1.868	-1.030	0.935	-0.242	0.000	0.401	-11.814	6.410	-0.269	-0.206	0.000	0.232	0.00000	-1.41703	0.00000	0.00000	18.18544	0.00000
0.6125	-1.299	-1.913	0.974	-0.228	0.000	0.373	-11.339	5.727	0.386	-0.205	0.000	0.232	0.00000	-0.77752	0.00000	0.00000	19.82961	0.00000
0.6150	-1.603	-0.864	0.842	-0.250	0.000	0.371	-11.947	7.272	0.126	-0.208	0.000	0.231	0.00000	-1.89064	0.00000	0.00000	17.10304	0.00000
0.6175	-1.561	-0.688	0.932	-0.228	0.000	0.398	-11.511	6.926	0.038	-0.207	0.000	0.229	0.00000	-1.41867	0.00000	0.00000	16.88484	0.00000
0.6200	-1.557	-1.038	0.975	-0.238	0.000	0.399	-11.684	6.754	-0.137	-0.207	0.000	0.231	0.00000	-1.20034	0.00000	0.00000	17.43962	0.00000
0.6225	-1.252	-1.913	1.239	-0.221	0.000	0.387	-11.597	6.074	0.168	-0.207	0.000	0.231	0.00000	-0.55607	0.00000	0.00000	19.15313	0.00000
0.6250	-1.607	-0.168	0.710	-0.225	0.000	0.380	-11.901	6.240	-0.357	-0.204	0.000	0.233	0.00000	-6.59021	0.00000	0.00000	18.65384	0.00000
0.6275	-1.207	-1.564	0.885	-0.240	0.000	0.385	-11.466	6.587	0.127	-0.207	0.000	0.231	0.00000	-0.84463	0.00000	0.00000	17.85975	0.00000
0.6300	-1.513	-2.774	1.023	-0.246	0.000	0.409	-11.421	6.759	-0.048	-0.207	0.000	0.230	0.00000	-0.67727	0.00000	0.00000	17.21013	0.00000
0.6325	-1.386	-1.038	0.711	-0.230	0.000	0.397	-11.856	7.959	-0.354	-0.208	0.000	0.229	0.00000	-1.11334	0.00000	0.00000	15.45421	0.00000
0.6350	-1.650	-1.034	1.021	-0.231	0.000	0.382	-11.548	7.786	-0.615	-0.209	0.000	0.228	0.00000	-1.28486	0.00000	0.00000	15.07210	0.00000
0.6375	-1.517	-1.383	0.845	-0.237	0.000	0.398	-11.638	8.130	-0.353	-0.208	0.000	0.228	0.00000	-0.98674	0.00000	0.00000	14.91122	0.00000
0.6400	-1.473	-1.216	0.929	-0.237	0.000	0.362	-11.375	6.759	-0.309	-0.207	0.000	0.231	0.00000	-1.34463	0.00000	0.00000	17.03324	0.00000
0.6425	-1.428	-1.216	1.017	-0.235	0.000	0.371	-11.639	6.074	-0.096	-0.205	0.000	0.230	0.00000	-1.17387	0.00000	0.00000	18.71246	0.00000
0.6450	-1.518	-1.212	0.975	-0.233	0.000	0.373	-11.420	5.730	-0.182	-0.204	0.000	0.231	0.00000	-1.18879	0.00000	0.00000	19.30962	0.00000
0.6475	-1.254	-2.087	0.842	-0.234	0.000	0.378	-11.637	6.932	-0.135	-0.208	0.000	0.230	0.00000	-0.77406	0.00000	0.00000	17.16482	0.00000
0.6500	-1.213	-1.397	0.706	-0.225	0.000	0.356	-11.333	5.729	-0.182	-0.205	0.000	0.231	0.00000	-1.10746	0.00000	0.00000	19.14683	0.00000
0.6525	-1.602	-0.860	1.154	-0.236	0.000	0.400	-11.942	6.240	-0.577	-0.205	0.000	0.232	0.00000	-1.14059	0.00000	0.00000	18.37493	0.00000
